<svg id="グループ_23166" data-name="グループ 23166" xmlns="http://www.w3.org/2000/svg" xmlns:xlink="http://www.w3.org/1999/xlink" width="32.009" height="35.05" viewBox="0 0 32.009 35.05">
  <defs>
    <clipPath id="clip-path">
      <rect id="長方形_6766" data-name="長方形 6766" width="32.009" height="35.05" fill="#fff"/>
    </clipPath>
  </defs>
  <g id="グループ_23165" data-name="グループ 23165" clip-path="url(#clip-path)">
    <path id="パス_1688" data-name="パス 1688" d="M68.309,251.789H51.864a.655.655,0,0,0,0,1.31H68.309a.655.655,0,1,0,0-1.31" transform="translate(-46.809 -230.144)" fill="#fff"/>
    <path id="パス_1689" data-name="パス 1689" d="M24.924,48.52l-5.069-.273a.819.819,0,0,0-.86.86l.274,5.068H1.634V24.347H22.567L24.2,22.712H.817A.817.817,0,0,0,0,23.529V54.992a.817.817,0,0,0,.817.817H20.132a.826.826,0,0,0,.316-.065.849.849,0,0,0,.114-.077.8.8,0,0,0,.148-.1l5.611-5.61a.821.821,0,0,0,.1-.145.835.835,0,0,0,.078-.118.8.8,0,0,0,.065-.315V32.063L24.924,33.7Zm-4.076,4.6-.172-3.191,3.193.172Z" transform="translate(0 -20.76)" fill="#fff"/>
    <path id="パス_1690" data-name="パス 1690" d="M65.594,85.72H51.864a.655.655,0,0,0,0,1.31h12.42Z" transform="translate(-46.809 -78.351)" fill="#fff"/>
    <path id="パス_1691" data-name="パス 1691" d="M51.211,127.889a.653.653,0,0,0,.653.655h9.922l.186-.8.057-.2.015-.042.021-.056.012-.029a1.736,1.736,0,0,1,.1-.183H51.864a.653.653,0,0,0-.653.655" transform="translate(-46.809 -116.296)" fill="#fff"/>
    <path id="パス_1692" data-name="パス 1692" d="M61.106,169.438l.159-.686h-9.4a.655.655,0,0,0,0,1.31h9.2c0-.052-.015-.1-.015-.154a2.074,2.074,0,0,1,.051-.46Z" transform="translate(-46.809 -154.245)" fill="#fff"/>
    <path id="パス_1693" data-name="パス 1693" d="M68.309,293.3H51.864a.655.655,0,0,0,0,1.31H68.309a.655.655,0,1,0,0-1.31" transform="translate(-46.809 -268.089)" fill="#fff"/>
    <path id="パス_1694" data-name="パス 1694" d="M68.309,210.266H51.864a.655.655,0,0,0,0,1.31H68.309a.655.655,0,1,0,0-1.31" transform="translate(-46.809 -192.19)" fill="#fff"/>
    <path id="パス_1695" data-name="パス 1695" d="M196.62,24.711a.382.382,0,0,0-.54,0l-9.42,9.421,0,0-.072.109-.012.029-.015.042-.866,3.749a.382.382,0,0,0,.458.457l3.748-.866.038-.014.032-.012.111-.073,0,0,9.419-9.42a.38.38,0,0,0,0-.539Zm-8.843,12.652-.926-.926.3-1.28,1.911,1.911Z" transform="translate(-169.721 -22.485)" fill="#fff"/>
    <path id="パス_1696" data-name="パス 1696" d="M323.237,3,320.353.111a.383.383,0,0,0-.54,0l-.96.961a.38.38,0,0,0,0,.539L321.735,4.5a.381.381,0,0,0,.539,0l.962-.961a.382.382,0,0,0,0-.539" transform="translate(-291.339 0)" fill="#fff"/>
  </g>
</svg>
