<svg xmlns="http://www.w3.org/2000/svg" width="37.231" height="24.833" viewBox="0 0 37.231 24.833">
  <path id="Icon_akar-youtube-fill" data-name="Icon akar-youtube-fill" d="M36.451,9.889a4.321,4.321,0,0,0-1.188-1.97,4.731,4.731,0,0,0-2.075-1.151C30.274,6,18.6,6,18.6,6a118.85,118.85,0,0,0-14.565.729A4.9,4.9,0,0,0,1.964,7.908,4.493,4.493,0,0,0,.757,9.887,45.122,45.122,0,0,0,0,18.409a45.04,45.04,0,0,0,.757,8.522,4.385,4.385,0,0,0,1.2,1.968,4.8,4.8,0,0,0,2.08,1.152c2.952.766,14.565.766,14.565.766a119.123,119.123,0,0,0,14.583-.729,4.731,4.731,0,0,0,2.075-1.151,4.312,4.312,0,0,0,1.187-1.97,44.02,44.02,0,0,0,.777-8.523,41.227,41.227,0,0,0-.776-8.557ZM14.894,23.72V13.1l9.71,5.311Z" transform="translate(0.001 -5.993)" fill="#898989"/>
</svg>
