<svg xmlns="http://www.w3.org/2000/svg" width="35.609" height="35.609" viewBox="0 0 35.609 35.609">
  <path id="Icon_akar-instagram-fill" data-name="Icon akar-instagram-fill" d="M11.964,1.607c1.9-.087,2.5-.107,7.34-.107s5.442.021,7.339.107a13.1,13.1,0,0,1,4.325.827,9.114,9.114,0,0,1,5.205,5.207A13.1,13.1,0,0,1,37,11.963c.087,1.9.107,2.507.107,7.342s-.021,5.442-.107,7.34a13.053,13.053,0,0,1-.829,4.322,9.09,9.09,0,0,1-5.205,5.207A13.094,13.094,0,0,1,26.646,37c-1.9.087-2.506.107-7.342.107s-5.442-.021-7.34-.107a13.053,13.053,0,0,1-4.322-.829,8.735,8.735,0,0,1-3.155-2.052,8.727,8.727,0,0,1-2.054-3.153,13.141,13.141,0,0,1-.827-4.322c-.087-1.9-.107-2.507-.107-7.342s.021-5.442.107-7.339a13.1,13.1,0,0,1,.827-4.325A8.734,8.734,0,0,1,4.49,4.488,8.727,8.727,0,0,1,7.641,2.434a13.141,13.141,0,0,1,4.322-.827ZM26.5,4.812c-1.878-.086-2.441-.1-7.195-.1s-5.317.018-7.195.1A9.841,9.841,0,0,0,8.8,5.425a5.529,5.529,0,0,0-2.048,1.33A5.523,5.523,0,0,0,5.425,8.8a9.841,9.841,0,0,0-.613,3.307c-.086,1.878-.1,2.441-.1,7.195s.018,5.317.1,7.195a9.841,9.841,0,0,0,.613,3.307A5.88,5.88,0,0,0,8.8,33.184a9.841,9.841,0,0,0,3.307.613c1.878.086,2.439.1,7.195.1s5.317-.018,7.195-.1a9.841,9.841,0,0,0,3.307-.613,5.88,5.88,0,0,0,3.378-3.378A9.841,9.841,0,0,0,33.8,26.5c.086-1.878.1-2.441.1-7.195s-.018-5.317-.1-7.195A9.841,9.841,0,0,0,33.184,8.8a5.529,5.529,0,0,0-1.33-2.048,5.524,5.524,0,0,0-2.048-1.33A9.841,9.841,0,0,0,26.5,4.812ZM17.03,24.793A5.94,5.94,0,1,0,13.365,19.3a5.939,5.939,0,0,0,3.665,5.488Zm-4.2-11.96a9.152,9.152,0,1,1,0,12.942,9.152,9.152,0,0,1,0-12.942Zm17.652-1.318a2.164,2.164,0,1,0-3.015-.044,2.164,2.164,0,0,0,3.015.044Z" transform="translate(-1.5 -1.5)" fill="#898989"/>
</svg>
