<svg xmlns="http://www.w3.org/2000/svg" width="11.63" height="11.63" viewBox="0 0 11.63 11.63">
  <g id="Icon_feather-external-link" data-name="Icon feather-external-link" transform="translate(-4 -4)">
    <path id="パス_1617" data-name="パス 1617" d="M12.177,18.359h-6.5A1.683,1.683,0,0,1,4,16.677v-6.5A1.683,1.683,0,0,1,5.681,8.5H9.225a.5.5,0,0,1,0,1H5.681A.682.682,0,0,0,5,10.181v6.5a.682.682,0,0,0,.681.681h6.5a.682.682,0,0,0,.681-.681V13.134a.5.5,0,0,1,1,0v3.543A1.683,1.683,0,0,1,12.177,18.359Z" transform="translate(0 -2.728)" fill="#fff"/>
    <path id="パス_1618" data-name="パス 1618" d="M26.043,8.543a.5.5,0,0,1-.5-.5V5H22.5a.5.5,0,1,1,0-1h3.543a.5.5,0,0,1,.5.5V8.043A.5.5,0,0,1,26.043,8.543Z" transform="translate(-10.913)" fill="#fff"/>
    <path id="パス_1619" data-name="パス 1619" d="M15,11.5a.5.5,0,0,1-.354-.854l6.5-6.5a.5.5,0,0,1,.707.707l-6.5,6.5A.5.5,0,0,1,15,11.5Z" transform="translate(-6.366)" fill="#fff"/>
  </g>
</svg>
