<svg xmlns="http://www.w3.org/2000/svg" width="13.307" height="15.208" viewBox="0 0 13.307 15.208">
  <path id="Icon_fa-regular-calendar-days" data-name="Icon fa-regular-calendar-days" d="M4.515.713a.713.713,0,1,0-1.426,0V1.9H1.9A1.9,1.9,0,0,0,0,3.8v9.5a1.9,1.9,0,0,0,1.9,1.9h9.5a1.9,1.9,0,0,0,1.9-1.9V3.8a1.9,1.9,0,0,0-1.9-1.9H10.218V.713a.713.713,0,0,0-1.426,0V1.9H4.515ZM1.426,5.7H3.8V7.366H1.426Zm0,3.089H3.8v1.9H1.426Zm3.8,0H8.079v1.9H5.228Zm4.277,0h2.376v1.9H9.5Zm2.376-1.426H9.5V5.7h2.376Zm0,4.752v1.188a.477.477,0,0,1-.475.475H9.5V12.119Zm-3.8,0v1.663H5.228V12.119Zm-4.277,0v1.663H1.9a.477.477,0,0,1-.475-.475V12.119ZM8.079,7.366H5.228V5.7H8.079Z" fill="#414141"/>
</svg>
