<svg xmlns="http://www.w3.org/2000/svg" xmlns:xlink="http://www.w3.org/1999/xlink" width="196.265" height="73.673" viewBox="0 0 196.265 73.673">
  <defs>
    <clipPath id="clip-path">
      <rect id="長方形_149" data-name="長方形 149" width="196.265" height="73.673" fill="none"/>
    </clipPath>
  </defs>
  <g id="グループ_276" data-name="グループ 276" clip-path="url(#clip-path)">
    <path id="パス_1671" data-name="パス 1671" d="M.109,22.376C-1.686,41.036,19,47.734,33.966,46.653c10.564-.763,21.012-4.059,31.664-3.291,7.257.524,11.581,3.738,14.018,10.658A44.4,44.4,0,0,1,81.82,71.907a1.42,1.42,0,0,0,2.626.712c3-5.326,6.124-10.819,10.7-14.97,5.6-5.081,12.556-6.056,19.862-5.3,12.857,1.328,24.862,3.212,37.736.43,20.831-4.5,39.277-19.594,43.491-41.12.347-1.772-2.37-2.531-2.718-.749-5.1,26.052-30.464,40.2-55.441,40.747-11.783.259-25.112-5.078-36.563-1.115C92.087,53.8,86.641,62.985,82.013,71.2l2.626.711c.56-8.165-.371-18.582-5.517-25.356-5.045-6.643-14.592-6.48-22.088-5.813-10.441.928-20.791,4.026-31.341,3.139-11.506-.969-24.029-8.366-22.766-21.5.174-1.8-2.646-1.793-2.819,0" transform="translate(0 0.389)"/>
    <path id="パス_1672" data-name="パス 1672" d="M33.531,28.753a7,7,0,0,1-6.088-3.093,12.361,12.361,0,0,1-1.715-6.84A23.986,23.986,0,0,1,28.606,7.51c2.248-4.194,5.037-6.317,8.295-6.317a5.585,5.585,0,0,1,2.874.951,8.812,8.812,0,0,1,2.165,1.935A3.541,3.541,0,0,1,42.862,6.2a2.273,2.273,0,0,1-.66,1.615,2.383,2.383,0,0,1-1.649.658c-.649,0-1.331-.461-2.281-1.541A2.712,2.712,0,0,0,36.44,5.848c-1.263,0-2.658,1.474-4.037,4.265a20.5,20.5,0,0,0-2.2,9.026c0,4.51,1.921,5.031,3.364,5.031a11.418,11.418,0,0,0,5.579-1.857c1-.6,1.366-.767,1.689-.767a2.179,2.179,0,0,1,1.544.731,2.283,2.283,0,0,1,.73,1.614,3.1,3.1,0,0,1-1.769,2.489,15.369,15.369,0,0,1-4.04,1.708,14.947,14.947,0,0,1-3.77.665" transform="translate(1.012 0.047)"/>
    <path id="パス_1673" data-name="パス 1673" d="M64.688,29.084c-2.85,0-3.03-4.3-3.09-5.719l-.124-2.99a19.339,19.339,0,0,0-4.951,5.062c-.228.528-.484,1.111-.775,1.658-.517.946-.968,1.529-1.628,1.529a2.48,2.48,0,0,1-1.881-.856,3.1,3.1,0,0,1-.71-1.913V24.9c-.036-.508-.036-.914-.036-1.135a52.2,52.2,0,0,1,.934-10.129l2.056-11.3C54.765.784,55.382,0,56.32,0a2.028,2.028,0,0,1,1.741,1.055A3.193,3.193,0,0,1,58.7,2.912a14.7,14.7,0,0,1-.236,1.528l-.058.328c-.243,1.17-.548,2.645-.887,4.605l-1.066,5.579c-.135.71-.335,2.121-.6,4.209q1.132-1.054,2.781-2.321c2.922-2.319,3.963-2.587,4.49-2.587a2.324,2.324,0,0,1,1.832.916,3.446,3.446,0,0,1,.725,2.031c0,.053-.011.182-.033.388-.027.246-.07.632-.111,1.156-.068.857-.069,1.406-.069,1.613a36.259,36.259,0,0,0,.314,4.63l.285,2.314c-.149,1.571-.93,1.783-1.382,1.783" transform="translate(2.025 0)"/>
    <path id="パス_1674" data-name="パス 1674" d="M85.742,28.413a6.9,6.9,0,0,1-6.36-3.652h-.661a7.557,7.557,0,0,1-2.994-.62c-1.449-.6-2.187-1.453-2.187-2.539A1.944,1.944,0,0,1,75.6,19.434a2.7,2.7,0,0,1,1.457.658,1.8,1.8,0,0,0,1.059.406h.037c-.029-.3-.041-.563-.041-.776A10.2,10.2,0,0,1,79.48,14.6c1.125-1.967,2.588-2.965,4.348-2.965a4.3,4.3,0,0,1,3.067,1.476,4.623,4.623,0,0,1,1.475,3.28c0,2.675-1.647,5.017-4.9,6.966a2.591,2.591,0,0,0,1.743.689,12.367,12.367,0,0,0,1.267-.1l.461-.057A8.916,8.916,0,0,1,87.9,23.8a2.1,2.1,0,0,1,1.473.66A2.411,2.411,0,0,1,90,26c0,1.1-.739,2.415-4.259,2.415M83.685,16.038c-.407,0-.706.71-.846,1.133a6.461,6.461,0,0,0-.433,1.857c1.464-1.145,1.807-1.975,1.807-2.5a.886.886,0,0,0-.22-.409.915.915,0,0,0-.308-.083" transform="translate(2.892 0.457)"/>
    <path id="パス_1675" data-name="パス 1675" d="M103.321,27.946a5.712,5.712,0,0,1-5.891-5.925,10.592,10.592,0,0,1,2.192-6.471c1.835-2.484,4.012-3.746,6.464-3.746a3.262,3.262,0,0,1,1.876.617,2.363,2.363,0,0,1,.93,1.905,2.56,2.56,0,0,1-.781,1.7,2.718,2.718,0,0,1-1.883.822,5.577,5.577,0,0,1-1.875-.254,7.583,7.583,0,0,0-1.869,2.159,5.633,5.633,0,0,0-.862,2.913c0,1.795.731,1.947,1.415,1.947a2.89,2.89,0,0,0,1.822-.535c.3-.31.741-.678,1.184-1.046a2.616,2.616,0,0,1,1.639-.867,2.022,2.022,0,0,1,1.437.659,2.423,2.423,0,0,1,.624,1.544c0,.919-.613,1.822-1.93,2.84a7.24,7.24,0,0,1-4.492,1.737" transform="translate(3.832 0.464)"/>
    <path id="パス_1676" data-name="パス 1676" d="M130.036,28.339c-.449,0-1.157-.256-3-2.156-1.008-.978-2.484-2.523-4.6-4.778-.014.636-.014,1.2-.014,1.717,0,.309,0,.756.034,1.305,0,0,.073,1.056.073,1.177a2.157,2.157,0,0,1-.659,1.543,2.038,2.038,0,0,1-1.508.624c-1.1,0-2.415-.653-2.415-3.762a2.454,2.454,0,0,1,.235-.983,2.612,2.612,0,0,0,.122-.353c0-.037-.074-1.218-.074-1.218-.034-.689-.034-1.128-.034-1.346,0-.737.1-2.585.393-5.562.286-3.2.534-5.724.82-7.589.1-.693.275-1.555.481-2.586.083-.628.191-1.488.372-2.564A1.977,1.977,0,0,1,122.305,0a1.912,1.912,0,0,1,2.1,2.026c0,.242-.107.98-.5,3.577-.495,3-.84,5.651-1.052,8.079a21.756,21.756,0,0,0,7.379-3.188,2.307,2.307,0,0,1,1.265-.6,2.062,2.062,0,0,1,2.344,2.132c0,1.416-1.447,2.706-4.556,4.061a29.125,29.125,0,0,1-4.6,1.62c1.141,1.224,2.98,3.057,5.758,5.744,1.59,1.541,1.909,2.158,1.909,2.651a2.089,2.089,0,0,1-2.308,2.238" transform="translate(4.638 0)"/>
    <path id="パス_1677" data-name="パス 1677" d="M146.213,29.611a2.343,2.343,0,0,1-1.845-1.039,2.286,2.286,0,0,1-.889-2.085,2.247,2.247,0,0,1,.789-1.743,2.492,2.492,0,0,1,1.768-.708,2.353,2.353,0,0,1,1.165.415,2.937,2.937,0,0,1,1.25,2.781,2.124,2.124,0,0,1-2.239,2.379m-.035-7.34a1.9,1.9,0,0,1-1.5-.658,1.944,1.944,0,0,1-.558-1.438c0-.22,0-.771.073-1.653.034-.966.14-2.746.319-5.239a42.761,42.761,0,0,1,.963-6.928,2.381,2.381,0,0,1-.078-.611,6.374,6.374,0,0,1,.313-1.649,2.97,2.97,0,0,1,1.031-1.531,2.538,2.538,0,0,1,1.639-.654,1.839,1.839,0,0,1,1.456.759,2.353,2.353,0,0,1,.533,1.444c-.137.523-.273.967-.411,1.513a71.6,71.6,0,0,0-1.682,14.114c-.122,2.205-1.366,2.532-2.1,2.532" transform="translate(5.642 0.075)"/>
    <path id="パス_1678" data-name="パス 1678" d="M155.544,29.611a2.343,2.343,0,0,1-1.845-1.039,2.285,2.285,0,0,1-.89-2.085,2.248,2.248,0,0,1,.79-1.743,2.492,2.492,0,0,1,1.768-.708,2.346,2.346,0,0,1,1.164.415,2.936,2.936,0,0,1,1.251,2.781,2.124,2.124,0,0,1-2.239,2.379m-.035-7.34a1.9,1.9,0,0,1-1.5-.658,1.944,1.944,0,0,1-.558-1.438c0-.22,0-.771.073-1.653.034-.966.14-2.746.319-5.239a42.763,42.763,0,0,1,.963-6.928,2.381,2.381,0,0,1-.078-.611,6.374,6.374,0,0,1,.313-1.649,2.974,2.974,0,0,1,1.03-1.531,2.542,2.542,0,0,1,1.639-.654,1.839,1.839,0,0,1,1.457.759,2.353,2.353,0,0,1,.533,1.444c-.137.523-.273.967-.411,1.513a71.6,71.6,0,0,0-1.682,14.114c-.122,2.205-1.366,2.532-2.1,2.532" transform="translate(6.009 0.075)"/>
  </g>
</svg>
