<svg xmlns="http://www.w3.org/2000/svg" xmlns:xlink="http://www.w3.org/1999/xlink" width="76.021" height="81.709" viewBox="0 0 76.021 81.709">
  <defs>
    <clipPath id="clip-path">
      <rect id="長方形_145" data-name="長方形 145" width="61.963" height="69.553" transform="translate(0 0)" fill="none"/>
    </clipPath>
  </defs>
  <g id="グループ_268" data-name="グループ 268" transform="translate(0 13.939) rotate(-13)">
    <g id="グループ_267" data-name="グループ 267" clip-path="url(#clip-path)">
      <path id="パス_1657" data-name="パス 1657" d="M37.79,29.294c.634-1.093.5-2.383.574-3.807.116-2.355.386-4.7.7-7.037.114-.857.731-8.332,2.109-8.24,1,.067,1.758,5.292,2.984,9.581S46.6,30.944,46.6,30.944s14.95,3.4,15.357,5.067S46.68,39.22,45.963,41.337s-1.59,18.745-3.419,18.486-2.968-13.57-3.83-15.653-.265-5.407-5.627-5.683c-1.388-.072-10.428-.122-10.672-2.117-.059-.483.464-.81.91-1a79.532,79.532,0,0,1,9.916-3.545A11.069,11.069,0,0,0,36.762,30.4a3.541,3.541,0,0,0,1.028-1.1" fill="#1a1311"/>
      <path id="パス_1658" data-name="パス 1658" d="M8.379,10.628c.508-.628.568-2.03.748-2.789.27-1.139.551-2.277.879-3.4C10.26,3.568,11.012-.04,12.343,0c2.718.085,2.822,6.2,2.984,7.91.13,1.381.3,3.365,1.723,3.906a13.014,13.014,0,0,0,2.987.378c.9.1,5.282.3,4.9,1.97-.344,1.492-7.369-1.53-8.7,2.13S14.066,28.168,12.274,28.3s-.88-5.664-1.465-8.055c-.546-2.235-1.342-4.7-3.639-5.675C5.03,13.663,2.2,14.354.285,12.9A.634.634,0,0,1,.1,12.039a.848.848,0,0,1,.4-.232c2.164-.732,4.608.107,6.8-.551A2.379,2.379,0,0,0,8.3,10.713a1.053,1.053,0,0,0,.077-.085" fill="#1a1311"/>
      <path id="パス_1659" data-name="パス 1659" d="M23.532,55.22c.851-1.382-.472-7.078,1.733-7.186,1.873-.089,2.13,4.749,2.6,5.82a6.483,6.483,0,0,0,4.016,3.206c.466.145,1.885,1.213,1.165,1.761a1.172,1.172,0,0,1-.62.176l-2.856.26c-1.524.138-2.362.376-2.42,1.9-.043,1.112-.08,2.223-.172,3.333-.07.832-.221,5.328-1.776,5.048-1.909-.344-1-8.475-1-8.475s.382-2.323-2.7-2.482c-.792-.041-3.592-.093-3.122-1.587.352-1.117,3.006-1.1,3.91-1.242a2.307,2.307,0,0,0,1.063-.339.7.7,0,0,0,.172-.2" fill="#1a1311"/>
    </g>
  </g>
</svg>
